<svg xmlns="http://www.w3.org/2000/svg" viewBox="0 0 1400 520" width="1400" height="520">
  <defs>
    <linearGradient id="bg" x1="0" y1="0" x2="1400" y2="520" gradientUnits="userSpaceOnUse">
      <stop offset="0" stop-color="#0e1014"/><stop offset=".55" stop-color="#15181e"/><stop offset="1" stop-color="#181b21"/>
    </linearGradient>
    <!-- Faint monitor scanlines -->
    <pattern id="scan" width="4" height="3" patternUnits="userSpaceOnUse">
      <rect width="4" height="1" fill="#e6eaf0" fill-opacity=".035"/>
    </pattern>
    <radialGradient id="glow" cx="1008" cy="260" r="420" gradientUnits="userSpaceOnUse">
      <stop offset="0" stop-color="#5b8ff5" stop-opacity=".07"/><stop offset="1" stop-color="#5b8ff5" stop-opacity="0"/>
    </radialGradient>
    <radialGradient id="halo" cx="1008" cy="260" r="22" gradientUnits="userSpaceOnUse">
      <stop offset="0" stop-color="#5b8ff5" stop-opacity=".26"/><stop offset="1" stop-color="#5b8ff5" stop-opacity="0"/>
    </radialGradient>
    <linearGradient id="chirpFade" x1="0" y1="0" x2="1400" y2="0" gradientUnits="userSpaceOnUse">
      <stop offset="0" stop-color="#ece8dc" stop-opacity="0"/><stop offset=".2" stop-color="#ece8dc"/>
      <stop offset=".8" stop-color="#ece8dc"/><stop offset="1" stop-color="#ece8dc" stop-opacity="0"/>
    </linearGradient>
    <!-- Chest trim: yellow vent slats -->
    <pattern id="slats" width="22" height="4" patternUnits="userSpaceOnUse">
      <rect width="14" height="4" fill="#ffd23f"/>
    </pattern>
  </defs>

  <rect width="1400" height="520" fill="url(#bg)"/>
  <rect width="1400" height="516" fill="url(#scan)"/>
  <rect width="1400" height="520" fill="url(#glow)"/>

  <!-- Radar rings from the emitter -->
  <g fill="none" stroke="#5b8ff5" stroke-width="1">
    <circle cx="1008" cy="260" r="100.2" stroke-opacity="0.182"/>
    <circle cx="1008" cy="260" r="282.4" stroke-opacity="0.148"/>
    <circle cx="1008" cy="260" r="464.5" stroke-opacity="0.115"/>
    <circle cx="1008" cy="260" r="646.7" stroke-opacity="0.082"/>
    <circle cx="1008" cy="260" r="828.9" stroke-opacity="0.048"/>
    <circle cx="1008" cy="260" r="1011.1" stroke-opacity="0.015"/>
  </g>
  <circle cx="1008" cy="260" r="22" fill="url(#halo)"/>
  <circle cx="1008" cy="260" r="2.2" fill="#5b8ff5" fill-opacity=".6"/>

  <!-- Target echoes -->
  <g>
    <circle cx="1075" cy="306" r="1.8" fill="#ece8dc" fill-opacity="0.61"/>
    <circle cx="1075" cy="306" r="4.4" fill="none" stroke="#ece8dc" stroke-width="1" stroke-opacity="0.28"/>
    <circle cx="1004" cy="343" r="1.9" fill="#ece8dc" fill-opacity="0.50"/>
    <circle cx="1004" cy="343" r="6.2" fill="none" stroke="#ece8dc" stroke-width="1" stroke-opacity="0.22"/>
    <circle cx="748" cy="183" r="2.2" fill="#ece8dc" fill-opacity="0.59"/>
    <circle cx="748" cy="183" r="5.2" fill="none" stroke="#ece8dc" stroke-width="1" stroke-opacity="0.27"/>
    <circle cx="1276" cy="222" r="1.6" fill="#5b8ff5" fill-opacity="0.49"/>
    <circle cx="1276" cy="222" r="5.9" fill="none" stroke="#5b8ff5" stroke-width="1" stroke-opacity="0.21"/>
    <circle cx="1176" cy="55" r="1.0" fill="#ece8dc" fill-opacity="0.48"/>
    <circle cx="1176" cy="55" r="5.5" fill="none" stroke="#ece8dc" stroke-width="1" stroke-opacity="0.21"/>
    <circle cx="1229" cy="423" r="2.0" fill="#5b8ff5" fill-opacity="0.43"/>
    <circle cx="1229" cy="423" r="7.1" fill="none" stroke="#5b8ff5" stroke-width="1" stroke-opacity="0.18"/>
    <circle cx="916" cy="277" r="1.1" fill="#ece8dc" fill-opacity="0.10"/>
    <circle cx="1291" cy="143" r="2.0" fill="#ece8dc" fill-opacity="0.10"/>
    <circle cx="1327" cy="108" r="2.3" fill="#ece8dc" fill-opacity="0.10"/>
    <circle cx="1050" cy="336" r="1.2" fill="#ece8dc" fill-opacity="0.10"/>
    <circle cx="1309" cy="402" r="1.6" fill="#ece8dc" fill-opacity="0.10"/>
    <circle cx="1342" cy="74" r="1.7" fill="#ece8dc" fill-opacity="0.10"/>
    <circle cx="1285" cy="42" r="1.8" fill="#ece8dc" fill-opacity="0.10"/>
    <circle cx="1023" cy="186" r="1.3" fill="#ece8dc" fill-opacity="0.10"/>
    <circle cx="1006" cy="76" r="1.4" fill="#ece8dc" fill-opacity="0.10"/>
    <circle cx="991" cy="310" r="2.4" fill="#5b8ff5" fill-opacity="0.10"/>
    <circle cx="1159" cy="44" r="2.2" fill="#ece8dc" fill-opacity="0.10"/>
    <circle cx="1241" cy="166" r="1.1" fill="#5b8ff5" fill-opacity="0.10"/>
  </g>

  <!-- FMCW chirp -->
  <polyline points="0,472.0 4,472.6 8,473.3 12,474.0 16,474.6 20,475.3 24,475.9 28,476.5 32,477.1 36,477.7 40,478.2 44,478.7 48,479.2 52,479.6 56,480.0 60,480.3 64,480.6 68,480.8 72,480.9 76,481.0 80,481.0 84,480.9 88,480.8 92,480.5 96,480.2 100,479.8 104,479.4 108,478.9 112,478.3 116,477.6 120,476.9 124,476.1 128,475.3 132,474.4 136,473.5 140,472.6 144,471.6 148,470.7 152,469.7 156,468.8 160,467.9 164,467.1 168,466.3 172,465.5 176,464.9 180,464.3 184,463.8 188,463.5 192,463.2 196,463.0 200,463.0 204,463.1 208,463.3 212,463.7 216,464.2 220,464.7 224,465.5 228,466.3 232,467.2 236,468.2 240,469.2 244,470.3 248,471.5 252,472.7 256,473.8 260,475.0 264,476.1 268,477.1 272,478.0 276,478.9 280,479.6 284,480.2 288,480.6 292,480.9 296,481.0 300,480.9 304,480.7 308,480.2 312,479.6 316,478.9 320,478.0 324,476.9 328,475.8 332,474.5 336,473.2 340,471.9 344,470.5 348,469.2 352,467.9 356,466.8 360,465.7 364,464.8 368,464.0 372,463.5 376,463.1 380,463.0 384,463.1 388,463.4 392,464.0 396,464.8 400,465.7 404,466.9 408,468.2 412,469.6 416,471.1 420,472.6 424,474.1 428,475.5 432,476.9 436,478.1 440,479.2 444,480.0 448,480.6 452,480.9 456,481.0 460,480.8 464,480.3 468,479.5 472,478.5 476,477.3 480,475.9 484,474.3 488,472.7 492,471.0 496,469.4 500,467.8 504,466.4 508,465.2 512,464.2 516,463.5 520,463.1 524,463.0 528,463.3 532,463.8 536,464.7 540,465.9 544,467.3 548,468.9 552,470.7 556,472.5 560,474.2 564,475.9 568,477.5 572,478.8 576,479.9 580,480.6 584,481.0 588,480.9 592,480.5 596,479.8 600,478.7 604,477.2 608,475.6 612,473.8 616,471.9 620,470.0 624,468.1 628,466.5 632,465.1 636,464.0 640,463.3 644,463.0 648,463.2 652,463.7 656,464.7 660,466.1 664,467.7 668,469.6 672,471.6 676,473.7 680,475.6 684,477.4 688,478.9 692,480.0 696,480.8 700,481.0 704,480.8 708,480.0 712,478.9 716,477.3 720,475.4 724,473.4 728,471.2 732,469.1 736,467.2 740,465.5 744,464.2 748,463.3 752,463.0 756,463.2 760,463.9 764,465.2 768,466.8 772,468.8 776,471.0 780,473.3 784,475.4 788,477.4 792,479.0 796,480.2 800,480.9 804,481.0 808,480.4 812,479.4 816,477.8 820,475.8 824,473.6 828,471.2 832,468.9 836,466.8 840,465.1 844,463.8 848,463.1 852,463.1 856,463.6 860,464.8 864,466.5 868,468.7 872,471.0 876,473.5 880,475.8 884,477.9 888,479.5 892,480.6 896,481.0 900,480.7 904,479.7 908,478.2 912,476.1 916,473.7 920,471.1 924,468.7 928,466.4 932,464.7 936,463.5 940,463.0 944,463.3 948,464.3 952,465.9 956,468.1 960,470.6 964,473.2 968,475.7 972,478.0 976,479.7 980,480.7 984,481.0 988,480.5 992,479.2 996,477.2 1000,474.8 1004,472.2 1008,469.5 1012,467.0 1016,465.0 1020,463.6 1024,463.0 1028,463.3 1032,464.4 1036,466.2 1040,468.6 1044,471.3 1048,474.1 1052,476.7 1056,478.8 1060,480.3 1064,481.0 1068,480.7 1072,479.6 1076,477.7 1080,475.2 1084,472.4 1088,469.5 1092,466.9 1096,464.8 1100,463.5 1104,463.0 1108,463.5 1112,464.9 1116,467.1 1120,469.8 1124,472.7 1128,475.6 1132,478.1 1136,479.9 1140,480.9 1144,480.9 1148,479.8 1152,477.9 1156,475.4 1160,472.4 1164,469.4 1168,466.6 1172,464.5 1176,463.3 1180,463.0 1184,463.9 1188,465.6 1192,468.2 1196,471.2 1200,474.3 1204,477.1 1208,479.4 1212,480.7 1216,481.0 1220,480.1 1224,478.3 1228,475.7 1232,472.6 1236,469.4 1240,466.6 1244,464.4 1248,463.2 1252,463.1 1256,464.2 1260,466.3 1264,469.1 1268,472.3 1272,475.5 1276,478.2 1280,480.2 1284,481.0 1288,480.6 1292,479.1 1296,476.6 1300,473.4 1304,470.1 1308,467.0 1312,464.6 1316,463.2 1320,463.1 1324,464.2 1328,466.4 1332,469.4 1336,472.7 1340,476.0 1344,478.7 1348,480.5 1352,481.0 1356,480.2 1360,478.2 1364,475.3 1368,471.9 1372,468.5 1376,465.6 1380,463.7 1384,463.0 1388,463.7 1392,465.6 1396,468.5 1400,472.0" fill="none" stroke="url(#chirpFade)" stroke-opacity=".24" stroke-width="1.1" stroke-linejoin="round"/>
  <polyline points="0,476.0 4,476.0 8,476.0 12,475.9 16,475.8 20,475.7 24,475.6 28,475.5 32,475.3 36,475.1 40,474.9 44,474.7 48,474.4 52,474.1 56,473.8 60,473.5 64,473.2 68,472.9 72,472.5 76,472.2 80,471.8 84,471.4 88,471.1 92,470.7 96,470.4 100,470.0 104,469.7 108,469.4 112,469.1 116,468.9 120,468.6 124,468.4 128,468.3 132,468.1 136,468.1 140,468.0 144,468.0 148,468.0 152,468.1 156,468.3 160,468.4 164,468.7 168,468.9 172,469.2 176,469.6 180,469.9 184,470.3 188,470.8 192,471.2 196,471.7 200,472.1 204,472.6 208,473.1 212,473.5 216,474.0 220,474.4 224,474.7 228,475.1 232,475.4 236,475.6 240,475.8 244,475.9 248,476.0 252,476.0 256,475.9 260,475.8 264,475.6 268,475.3 272,475.0 276,474.6 280,474.1 284,473.7 288,473.1 292,472.6 296,472.0 300,471.5 304,470.9 308,470.4 312,469.9 316,469.4 320,469.0 324,468.7 328,468.4 332,468.2 336,468.0 340,468.0 344,468.1 348,468.2 352,468.4 356,468.8 360,469.1 364,469.6 368,470.1 372,470.7 376,471.3 380,472.0 384,472.6 388,473.2 392,473.8 396,474.4 400,474.9 404,475.3 408,475.6 412,475.9 416,476.0 420,476.0 424,475.9 428,475.7 432,475.4 436,474.9 440,474.4 444,473.8 448,473.2 452,472.5 456,471.8 460,471.1 464,470.4 468,469.8 472,469.2 476,468.8 480,468.4 484,468.1 488,468.0 492,468.0 496,468.2 500,468.5 504,468.9 508,469.4 512,470.0 516,470.7 520,471.4 524,472.2 528,473.0 532,473.7 536,474.4 540,474.9 544,475.4 548,475.8 552,476.0 556,476.0 560,475.9 564,475.6 568,475.2 572,474.6 576,473.9 580,473.2 584,472.4 588,471.6 592,470.7 596,470.0 600,469.3 604,468.8 608,468.3 612,468.1 616,468.0 620,468.1 624,468.4 628,468.8 632,469.4 636,470.2 640,471.0 644,471.9 648,472.7 652,473.6 656,474.4 660,475.0 664,475.5 668,475.9 672,476.0 676,475.9 680,475.7 684,475.2 688,474.6 692,473.8 696,472.9 700,472.0 704,471.1 708,470.2 712,469.4 716,468.8 720,468.3 724,468.0 728,468.0 732,468.2 736,468.6 740,469.2 744,470.0 748,470.9 752,471.9 756,472.9 760,473.8 764,474.6 768,475.3 772,475.7 776,476.0 780,476.0 784,475.7 788,475.2 792,474.5 796,473.6 800,472.6 804,471.6 808,470.6 812,469.7 816,468.9 820,468.4 824,468.1 828,468.0 832,468.2 836,468.7 840,469.5 844,470.4 848,471.4 852,472.4 856,473.5 860,474.4 864,475.2 868,475.7 872,476.0 876,475.9 880,475.6 884,475.0 888,474.2 892,473.2 896,472.1 900,471.0 904,470.0 908,469.1 912,468.4 916,468.1 920,468.0 924,468.3 928,468.9 932,469.7 936,470.7 940,471.8 944,473.0 948,474.0 952,474.9 956,475.6 960,475.9 964,476.0 968,475.6 972,475.0 976,474.1 980,473.0 984,471.8 988,470.6 992,469.6 996,468.8 1000,468.2 1004,468.0 1008,468.2 1012,468.7 1016,469.5 1020,470.6 1024,471.8 1028,473.0 1032,474.1 1036,475.1 1040,475.7 1044,476.0 1048,475.9 1052,475.4 1056,474.6 1060,473.5 1064,472.3 1068,471.0 1072,469.9 1076,468.9 1080,468.3 1084,468.0 1088,468.2 1092,468.7 1096,469.6 1100,470.7 1104,472.0 1108,473.3 1112,474.5 1116,475.3 1120,475.9 1124,476.0 1128,475.7 1132,474.9 1136,473.9 1140,472.6 1144,471.3 1148,470.0 1152,469.0 1156,468.3 1160,468.0 1164,468.2 1168,468.8 1172,469.8 1176,471.0 1180,472.4 1184,473.7 1188,474.8 1192,475.6 1196,476.0 1200,475.9 1204,475.3 1208,474.3 1212,473.0 1216,471.6 1220,470.3 1224,469.1 1228,468.3 1232,468.0 1236,468.2 1240,468.8 1244,469.9 1248,471.2 1252,472.6 1256,474.0 1260,475.1 1264,475.8 1268,476.0 1272,475.7 1276,474.9 1280,473.7 1284,472.3 1288,470.8 1292,469.5 1296,468.6 1300,468.1 1304,468.1 1308,468.7 1312,469.7 1316,471.1 1320,472.6 1324,474.0 1328,475.1 1332,475.8 1336,476.0 1340,475.6 1344,474.7 1348,473.3 1352,471.8 1356,470.4 1360,469.1 1364,468.3 1368,468.0 1372,468.3 1376,469.2 1380,470.5 1384,472.0 1388,473.5 1392,474.8 1396,475.7 1400,476.0" fill="none" stroke="url(#chirpFade)" stroke-opacity=".11" stroke-width=".8" stroke-linejoin="round"/>

  <!-- HUD targeting brackets -->
  <g fill="none" stroke="#e6eaf0" stroke-opacity=".4" stroke-width="2">
    <path d="M38,17H17V38"/>
    <path d="M1362,17H1383V38"/>
    <path d="M38,499H17V478"/>
    <path d="M1362,499H1383V478"/>
  </g>

  <!-- Chest trim: a red block, then yellow vent slats on Federation blue -->
  <rect y="516" width="1400" height="4" fill="#5b8ff5"/>
  <rect y="516" width="1400" height="4" fill="url(#slats)"/>
  <rect y="516" width="160" height="4" fill="#ff4d4d"/>
</svg>
