<?xml version="1.0" encoding="UTF-8" standalone="no"?>
<svg
   viewBox="0 0 1400 520"
   width="1400"
   height="520"
   version="1.1"
   id="svg54"
   sodipodi:docname="zpeng-homepage-banner.svg"
   inkscape:version="1.4.2 (f4327f4, 2025-05-13)"
   xmlns:inkscape="http://www.inkscape.org/namespaces/inkscape"
   xmlns:sodipodi="http://sodipodi.sourceforge.net/DTD/sodipodi-0.dtd"
   xmlns="http://www.w3.org/2000/svg"
   xmlns:svg="http://www.w3.org/2000/svg">
  <sodipodi:namedview
     id="namedview54"
     pagecolor="#ffffff"
     bordercolor="#000000"
     borderopacity="0.25"
     inkscape:showpageshadow="2"
     inkscape:pageopacity="0.0"
     inkscape:pagecheckerboard="0"
     inkscape:deskcolor="#d1d1d1"
     inkscape:zoom="1.29"
     inkscape:cx="792.63566"
     inkscape:cy="165.89147"
     inkscape:window-width="3840"
     inkscape:window-height="2054"
     inkscape:window-x="-11"
     inkscape:window-y="-11"
     inkscape:window-maximized="1"
     inkscape:current-layer="svg54" />
  <defs
     id="defs11">
    <style
       id="style1">
      @import url('https://fonts.googleapis.com/css2?family=DM+Serif+Display:ital@0;1&amp;family=Space+Mono&amp;family=Inter:wght@400;500;600&amp;display=swap');
    </style>
    <!-- Background: 135° dark navy gradient -->
    <linearGradient
       id="bg"
       x1="0"
       y1="0"
       x2="1400"
       y2="520"
       gradientUnits="userSpaceOnUse">
      <stop
         offset="0%"
         stop-color="#12102e"
         id="stop1" />
      <stop
         offset="45%"
         stop-color="#1a183a"
         id="stop2" />
      <stop
         offset="75%"
         stop-color="#1e1d45"
         id="stop3" />
      <stop
         offset="100%"
         stop-color="#16213a"
         id="stop4" />
    </linearGradient>
    <!-- Dot grid (matches #timeline radial dot pattern) -->
    <pattern
       id="dots"
       width="30"
       height="30"
       patternUnits="userSpaceOnUse">
      <circle
         cx="15"
         cy="15"
         r="1"
         fill="#ffffff"
         fill-opacity="0.05"
         id="circle4" />
    </pattern>
    <!-- Blue glow at radar origin (72%, 50%) = (1008, 260) -->
    <radialGradient
       id="radarGlow"
       cx="1008"
       cy="260"
       r="480"
       gradientUnits="userSpaceOnUse">
      <stop
         offset="0%"
         stop-color="#2196f3"
         stop-opacity="0.10"
         id="stop5" />
      <stop
         offset="100%"
         stop-color="#2196f3"
         stop-opacity="0"
         id="stop6" />
    </radialGradient>
    <!-- Teal glow at wave area (left side) -->
    <radialGradient
       id="waveGlow"
       cx="320"
       cy="260"
       r="380"
       gradientUnits="userSpaceOnUse">
      <stop
         offset="0%"
         stop-color="#5dcdb5"
         stop-opacity="0.07"
         id="stop7" />
      <stop
         offset="100%"
         stop-color="#5dcdb5"
         stop-opacity="0"
         id="stop8" />
    </radialGradient>
    <!-- Sweep wedge gradient (emanates from radar center) -->
    <radialGradient
       id="sweepFill"
       cx="1008"
       cy="260"
       r="900"
       gradientUnits="userSpaceOnUse">
      <stop
         offset="0%"
         stop-color="#2196f3"
         stop-opacity="0.13"
         id="stop9" />
      <stop
         offset="50%"
         stop-color="#2196f3"
         stop-opacity="0.04"
         id="stop10" />
      <stop
         offset="100%"
         stop-color="#2196f3"
         stop-opacity="0"
         id="stop11" />
    </radialGradient>
  </defs>
  <!-- ░░░ BACKGROUND LAYERS ░░░ -->
  <rect
     width="1400"
     height="520"
     fill="url(#bg)"
     id="rect11" />
  <rect
     width="1400"
     height="520"
     fill="url(#dots)"
     id="rect12" />
  <rect
     width="1400"
     height="520"
     fill="url(#radarGlow)"
     id="rect13" />
  <rect
     width="1400"
     height="520"
     fill="url(#waveGlow)"
     id="rect14" />
  <!-- ░░░ RADAR RINGS — center (1008, 260), teal ░░░ -->
  <g
     fill="none"
     stroke="#5dcdb5"
     stroke-width="1"
     id="g20">
    <circle
       cx="1008"
       cy="260"
       r="130"
       stroke-opacity="0.14"
       id="circle14" />
    <circle
       cx="1008"
       cy="260"
       r="260"
       stroke-opacity="0.12"
       id="circle15" />
    <circle
       cx="1008"
       cy="260"
       r="390"
       stroke-opacity="0.10"
       id="circle16" />
    <circle
       cx="1008"
       cy="260"
       r="520"
       stroke-opacity="0.08"
       id="circle17" />
    <circle
       cx="1008"
       cy="260"
       r="650"
       stroke-opacity="0.06"
       id="circle18" />
    <circle
       cx="1008"
       cy="260"
       r="790"
       stroke-opacity="0.04"
       id="circle19" />
    <circle
       cx="1008"
       cy="260"
       r="960"
       stroke-opacity="0.03"
       id="circle20" />
  </g>
  <!-- ░░░ RADAR SWEEP WEDGE (pointing west toward signal area) ░░░ -->
  <!-- Wedge: center → (122, 416) arc → (122, 104) — spanning ~20° pointing West -->
  <path
     d="M 1008,260 L 122,416 A 900,900 0 0,1 122,104 Z"
     fill="url(#sweepFill)"
     opacity="0.55"
     id="path20" />
  <!-- Bright leading edge -->
  <line
     x1="1008"
     y1="260"
     x2="108"
     y2="260"
     stroke="#2196f3"
     stroke-width="0.9"
     stroke-opacity="0.22"
     id="line20" />
  <!-- ░░░ SIGNAL WAVES — x: 0 → 770, cy = 239 ░░░ -->
  <!-- Primary wave: freq 3.5, amp 0.06×H=31.2, Gaussian envelope -->
  <polyline
     points="0,239 15,243 30,246 45,249 60,250 75,250 90,246 105,241 120,235 135,228             150,223 165,220 180,220 195,225 210,233 225,243 240,253 255,262 270,266             285,266 300,261 315,252 330,239 345,227 360,216 375,209 390,208 405,213             420,223 435,235 450,247 465,258 480,265 495,267 510,264 525,256 540,246             555,236 570,227 585,221 600,218 615,220 630,225 645,232 660,239 675,246             690,251 705,253 720,253 735,250 750,246 770,239"
     fill="none"
     stroke="#2196f3"
     stroke-width="1.2"
     stroke-opacity="0.20"
     stroke-linecap="round"
     stroke-linejoin="round"
     id="polyline20" />
  <!-- Secondary wave: cosine phase, amp 0.025×H=13, same envelope -->
  <polyline
     points="0,242 55,239 110,233 165,239 220,249 275,239 330,226 385,239             440,252 495,239 550,229 605,239 660,246 715,239 770,242"
     fill="none"
     stroke="#2196f3"
     stroke-width="0.8"
     stroke-opacity="0.09"
     stroke-linecap="round"
     stroke-linejoin="round"
     id="polyline21" />
  <!-- ░░░ SCATTERED DOTS (teal + blue, varying opacity/size) ░░░ -->
  <!-- Teal -->
  <circle
     cx="120"
     cy="85"
     r="1.8"
     fill="#5dcdb5"
     opacity="0.38"
     id="circle21" />
  <circle
     cx="350"
     cy="145"
     r="1.3"
     fill="#5dcdb5"
     opacity="0.30"
     id="circle22" />
  <circle
     cx="582"
     cy="96"
     r="2.0"
     fill="#5dcdb5"
     opacity="0.28"
     id="circle23" />
  <circle
     cx="718"
     cy="315"
     r="1.5"
     fill="#5dcdb5"
     opacity="0.32"
     id="circle24" />
  <circle
     cx="96"
     cy="395"
     r="1.7"
     fill="#5dcdb5"
     opacity="0.24"
     id="circle25" />
  <circle
     cx="465"
     cy="425"
     r="1.2"
     fill="#5dcdb5"
     opacity="0.22"
     id="circle26" />
  <circle
     cx="638"
     cy="384"
     r="1.8"
     fill="#5dcdb5"
     opacity="0.18"
     id="circle27" />
  <circle
     cx="728"
     cy="190"
     r="1.4"
     fill="#5dcdb5"
     opacity="0.28"
     id="circle28" />
  <circle
     cx="1098"
     cy="94"
     r="1.5"
     fill="#5dcdb5"
     opacity="0.30"
     id="circle29" />
  <circle
     cx="1058"
     cy="388"
     r="1.3"
     fill="#5dcdb5"
     opacity="0.28"
     id="circle30" />
  <circle
     cx="958"
     cy="445"
     r="1.4"
     fill="#5dcdb5"
     opacity="0.20"
     id="circle31" />
  <circle
     cx="1208"
     cy="148"
     r="1.6"
     fill="#5dcdb5"
     opacity="0.22"
     id="circle32" />
  <circle
     cx="1360"
     cy="88"
     r="1.2"
     fill="#5dcdb5"
     opacity="0.18"
     id="circle33" />
  <!-- Blue -->
  <circle
     cx="200"
     cy="162"
     r="2.0"
     fill="#2196f3"
     opacity="0.35"
     id="circle34" />
  <circle
     cx="435"
     cy="72"
     r="1.5"
     fill="#2196f3"
     opacity="0.30"
     id="circle35" />
  <circle
     cx="658"
     cy="178"
     r="1.8"
     fill="#2196f3"
     opacity="0.25"
     id="circle36" />
  <circle
     cx="184"
     cy="455"
     r="1.5"
     fill="#2196f3"
     opacity="0.22"
     id="circle37" />
  <circle
     cx="504"
     cy="465"
     r="1.7"
     fill="#2196f3"
     opacity="0.20"
     id="circle38" />
  <circle
     cx="72"
     cy="292"
     r="1.3"
     fill="#2196f3"
     opacity="0.28"
     id="circle39" />
  <circle
     cx="314"
     cy="480"
     r="1.4"
     fill="#2196f3"
     opacity="0.22"
     id="circle40" />
  <circle
     cx="756"
     cy="406"
     r="1.1"
     fill="#2196f3"
     opacity="0.20"
     id="circle41" />
  <circle
     cx="905"
     cy="152"
     r="1.8"
     fill="#2196f3"
     opacity="0.32"
     id="circle42" />
  <circle
     cx="1255"
     cy="205"
     r="1.7"
     fill="#2196f3"
     opacity="0.25"
     id="circle43" />
  <circle
     cx="1325"
     cy="342"
     r="1.5"
     fill="#2196f3"
     opacity="0.22"
     id="circle44" />
  <circle
     cx="1182"
     cy="465"
     r="1.2"
     fill="#2196f3"
     opacity="0.18"
     id="circle45" />
  <circle
     cx="855"
     cy="488"
     r="1.4"
     fill="#2196f3"
     opacity="0.16"
     id="circle46" />
  <!-- ░░░ TEXT CONTENT ░░░ -->
  <!-- Hero tag: accent line + label -->
  <!-- Title line 1: "Zhengyu" -->
  <!-- Title line 2: italic "Peng," in accent + " Ph.D." in light -->
  <!-- Bio bullet list -->
  <!-- CTA buttons -->
</svg>
